<?xml version="1.0"?>
<svg width="512" height="512" viewBox="0 0 512 512" version="1.1" xmlns="http://www.w3.org/2000/svg" xmlns:xlink="http://www.w3.org/1999/xlink">
	<style>
		.cog-saw {
			fill: #fff;
		}
		
		.cog {
			fill: #fff;
		}
		
		.background {
			fill: #00c0a0;
		}
		
		.grid {
			/* display: none; */
			fill: #fff;
			transform: rotate(45deg);
			transform-origin: 50% 50%;
			stroke-width: 10px;
		}
		
		.center.grid {
			display: none;
		}
		
		.text {
			font-size: 36px;
			font-family: 'Ubuntu';
			fill: #00c0a0;
			text-anchor: middle;
		}
	</style>
	
	<defs>
		<!-- bottom cog mask -->
		<mask id="circle-path">
			<circle cx="256" cy="437" r="96" fill="#fff"/>
			<circle cx="256" cy="437" r="64" fill="#000"/>
			<circle cx="256" cy="437" r="32" fill="#fff"/>
			<circle cx="256" cy="437" r="16" fill="#000"/>
		</mask>
		
		<!-- right cog mask -->
		<mask id="circle2-path">
			<circle cx="437" cy="256" r="108" fill="#fff"/>
			<circle cx="437" cy="256" r="76" fill="#000"/>
			<circle cx="437" cy="256" r="45" fill="#fff"/>
			<path d="M 407,248 L 361,248 L 361,264 L 407,264 Z" fill="#fff"/>
			<path d="M 415,234 L 375,211 L 367,225 L 407,248 Z" fill="#fff"/>
			<path d="M 429,226 L 406,186 L 392,194 L 415,234 Z" fill="#fff"/>
			<path d="M 445,226 L 445,180 L 429,180 L 429,226 Z" fill="#fff"/>
			<path d="M 429,286 L 429,332 L 445,332 L 445,286 Z" fill="#fff"/>
			<path d="M 415,278 L 392,318 L 406,326 L 429,286 Z" fill="#fff"/>
			<path d="M 407,264 L 367,287 L 375,301 L 415,278 Z" fill="#fff"/>
			<circle cx="437" cy="256" r="32" fill="#000"/>
		</mask>
	</defs>
	
	<!-- background -->
	<rect x="128" y="128" width="256" height="256" transform="rotate(45, 256, 256)" class="background"/>
	
	<!-- bottom cog -->
	<circle cx="256" cy="437" r="96" class="cog" mask="url(#circle-path)"/>
	<path d="M 162,429 L 138,429 L 138,445 L 162,445 Z" class="cog-saw"/>
	<path d="M 171,397 L 148,389 L 142,405 L 165,413 Z" class="cog-saw"/>
	<path d="M 189,371 L 171,355 L 161,367 L 179,383 Z" class="cog-saw"/>
	<path d="M 216,352 L 204,331 L 190,339 L 202,360 Z" class="cog-saw"/>
	<path d="M 248,343 L 244,320 L 228,322 L 232,345 Z" class="cog-saw"/>
	<path d="M 280,345 L 284,322 L 268,320 L 264,343 Z" class="cog-saw"/>
	<path d="M 310,360 L 322,339 L 308,331 L 296,352 Z" class="cog-saw"/>
	<path d="M 333,383 L 351,367 L 341,355 L 323,371 Z" class="cog-saw"/>
	<path d="M 347,413 L 370,405 L 364,389 L 341,397 Z" class="cog-saw"/>
	<path d="M 350,445 L 374,445 L 374,429 L 350,429 Z" class="cog-saw"/>
	
	<!-- right cog -->
	<circle cx="437" cy="256" r="108" class="cog" mask="url(#circle2-path)"/>
	<path d="M 332,243 L 308,240 L 308,244 L 332,247 Z" class="cog-saw"/>
	<path d="M 334,228 L 311,223 L 311,227 L 334,232 Z" class="cog-saw"/>
	<path d="M 340,214 L 317,205 L 315,209 L 338,218 Z" class="cog-saw"/>
	<path d="M 346,201 L 325,189 L 323,193 L 344,205 Z" class="cog-saw"/>
	<path d="M 354,189 L 336,174 L 334,178 L 352,193 Z" class="cog-saw"/>
	<path d="M 364,179 L 348,161 L 346,163 L 362,181 Z" class="cog-saw"/>
	<path d="M 377,169 L 363,150 L 359,152 L 373,171 Z" class="cog-saw"/>
	<path d="M 389,161 L 378,140 L 374,142 L 385,163 Z" class="cog-saw"/>
	<path d="M 403,155 L 395,133 L 391,135 L 399,157 Z" class="cog-saw"/>
	<path d="M 417,152 L 412,129 L 408,129 L 413,152 Z" class="cog-saw"/>
	<path d="M 432,150 L 430,126 L 426,126 L 428,150 Z" class="cog-saw"/>
	<path d="M 435,362 L 435,386 L 439,386 L 439,362 Z" class="cog-saw"/>
	<path d="M 420,361 L 417,385 L 421,385 L 424,361 Z" class="cog-saw"/>
	<path d="M 406,357 L 399,380 L 403,382 L 410,359 Z" class="cog-saw"/>
	<path d="M 392,352 L 382,374 L 386,376 L 396,354 Z" class="cog-saw"/>
	<path d="M 379,345 L 366,365 L 370,367 L 383,347 Z" class="cog-saw"/>
	<path d="M 367,336 L 351,355 L 355,357 L 371,338 Z" class="cog-saw"/>
	<path d="M 357,326 L 339,342 L 341,344 L 359,328 Z" class="cog-saw"/>
	<path d="M 348,313 L 328,327 L 330,331 L 350,317 Z" class="cog-saw"/>
	<path d="M 341,300 L 319,311 L 321,315 L 343,304 Z" class="cog-saw"/>
	<path d="M 335,287 L 312,294 L 314,298 L 337,291 Z" class="cog-saw"/>
	<path d="M 333,272 L 309,277 L 309,281 L 333,276 Z" class="cog-saw"/>
	<path d="M 331,258 L 307,259 L 307,263 L 331,262 Z" class="cog-saw"/>
	
	<!-- grid -->
	<rect x="0" y="192" width="512" height="10" class="grid"/>
	<rect x="0" y="256" width="512" height="10" class="grid center"/>
	<rect x="0" y="320" width="512" height="10" class="grid"/>
	<rect x="194" y="0" width="10" height="512" class="grid"/>
	<rect x="256" y="0" width="10" height="512" class="grid center"/>
	<rect x="320" y="0" width="10" height="512" class="grid"/>
	
	<!-- text -->
	<text x="256" y="480" class="text">
		if-Team
	</text>
</svg>