<svg xmlns="http://www.w3.org/2000/svg" xmlns:xlink="http://www.w3.org/1999/xlink" viewBox="0 0 356.14 284.65"><defs><style>.cls-1,.cls-22{fill:#fff;}.cls-2{fill:#040000;}.cls-3{fill:none;}.cls-4{fill:#212222;}.cls-18,.cls-5{fill:#0f9083;}.cls-6{clip-path:url(#clip-path);}.cls-7{clip-path:url(#clip-path-5);}.cls-8{mask:url(#mask);}.cls-9{mask:url(#mask-2);}.cls-10{clip-path:url(#clip-path-40);}.cls-11{clip-path:url(#clip-path-44);}.cls-12{mask:url(#mask-3);}.cls-13{mask:url(#mask-4);}.cls-14{clip-path:url(#clip-path-79);}.cls-15{clip-path:url(#clip-path-83);}.cls-16{mask:url(#mask-5);}.cls-17{mask:url(#mask-6);}.cls-18{isolation:isolate;font-size:12.04px;}.cls-18,.cls-22{font-family:Ubuntu, Ubuntu;}.cls-19{letter-spacing:-0.03em;}.cls-20{letter-spacing:-0.05em;}.cls-21{letter-spacing:-0.05em;}.cls-22{font-size:40px;}.cls-23{letter-spacing:-0.05em;}.cls-24{clip-path:url(#clip-path-118);}.cls-25{clip-path:url(#clip-path-122);}.cls-26{mask:url(#mask-7);}.cls-27{mask:url(#mask-8);}</style><clipPath id="clip-path"><rect class="cls-3" x="289.53" y="20.44" width="40.89" height="40.89"/></clipPath><clipPath id="clip-path-5"><rect class="cls-3" x="289.53" y="20.44" width="40.89" height="40.89" transform="translate(61.88 231.16) rotate(-45)"/></clipPath><mask id="mask" x="294.64" y="54.46" width="30.67" height="30.67" maskUnits="userSpaceOnUse"><g id="circle-path"><circle class="cls-1" cx="309.98" cy="69.8" r="15.33"/><circle class="cls-2" cx="309.98" cy="69.8" r="10.22"/><circle class="cls-1" cx="309.98" cy="69.8" r="5.11"/><circle class="cls-2" cx="309.98" cy="69.8" r="2.56"/></g></mask><mask id="mask-2" x="321.64" y="23.64" width="34.5" height="34.5" maskUnits="userSpaceOnUse"><g id="circle2-path"><circle class="cls-1" cx="338.89" cy="40.89" r="17.25"/><circle class="cls-2" cx="338.89" cy="40.89" r="12.14"/><circle class="cls-1" cx="338.89" cy="40.89" r="7.19"/><path class="cls-1" d="M334.1,39.61h-7.35v2.56h7.35Z"/><path class="cls-1" d="M335.37,37.37,329,33.7l-1.28,2.24,6.39,3.67Z"/><path class="cls-1" d="M337.61,36.1l-3.67-6.39L331.7,31l3.67,6.39Z"/><path class="cls-1" d="M340.16,36.1V28.75h-2.56V36.1Z"/><path class="cls-1" d="M337.61,45.68V53h2.56V45.68Z"/><path class="cls-1" d="M335.37,44.4l-3.67,6.39,2.24,1.28,3.67-6.39Z"/><path class="cls-1" d="M334.1,42.17l-6.39,3.67L329,48.08l6.39-3.67Z"/><circle class="cls-2" cx="338.89" cy="40.89" r="5.11"/></g></mask><clipPath id="clip-path-40"><rect class="cls-3" x="199.88" y="20.73" width="40.31" height="40.31"/></clipPath><clipPath id="clip-path-44"><rect class="cls-3" x="199.88" y="20.73" width="40.31" height="40.31" transform="translate(35.54 167.57) rotate(-45)"/></clipPath><mask id="mask-3" x="204.92" y="54.27" width="30.23" height="30.23" maskUnits="userSpaceOnUse"><g id="circle-path-2" data-name="circle-path"><circle class="cls-1" cx="220.04" cy="69.39" r="15.12"/><circle class="cls-2" cx="220.04" cy="69.39" r="10.08"/><circle class="cls-1" cx="220.04" cy="69.39" r="5.04"/><circle class="cls-2" cx="220.04" cy="69.39" r="2.52"/></g></mask><mask id="mask-4" x="231.53" y="23.88" width="34.01" height="34.01" maskUnits="userSpaceOnUse"><g id="circle2-path-2" data-name="circle2-path"><circle class="cls-1" cx="248.54" cy="40.89" r="17.01"/><circle class="cls-2" cx="248.54" cy="40.89" r="11.97"/><circle class="cls-1" cx="248.54" cy="40.89" r="7.09"/><path class="cls-1" d="M243.81,39.63h-7.24v2.52h7.24Z"/><path class="cls-1" d="M245.07,37.42l-6.3-3.62L237.52,36l6.3,3.62Z"/><path class="cls-1" d="M247.28,36.16l-3.62-6.3-2.2,1.26,3.62,6.3Z"/><path class="cls-1" d="M249.8,36.16V28.92h-2.52v7.24Z"/><path class="cls-1" d="M247.28,45.61v7.24h2.52V45.61Z"/><path class="cls-1" d="M245.07,44.35l-3.62,6.3,2.2,1.26,3.62-6.3Z"/><path class="cls-1" d="M243.81,42.15l-6.3,3.62,1.26,2.2,6.3-3.62Z"/><circle class="cls-2" cx="248.54" cy="40.89" r="5.04"/></g></mask><clipPath id="clip-path-79"><rect class="cls-3" x="42.8" y="43.31" width="85.61" height="85.61"/></clipPath><clipPath id="clip-path-83"><rect class="cls-3" x="42.8" y="43.31" width="85.61" height="85.61" transform="translate(-35.82 85.75) rotate(-45)"/></clipPath><mask id="mask-5" x="53.5" y="114.54" width="64.2" height="64.2" maskUnits="userSpaceOnUse"><g id="circle-path-3" data-name="circle-path"><circle class="cls-1" cx="85.61" cy="146.64" r="32.1"/><circle class="cls-2" cx="85.61" cy="146.64" r="21.4"/><circle class="cls-1" cx="85.61" cy="146.64" r="10.7"/><circle class="cls-2" cx="85.61" cy="146.64" r="5.35"/></g></mask><mask id="mask-6" x="110.02" y="50" width="72.23" height="72.23" maskUnits="userSpaceOnUse"><g id="circle2-path-3" data-name="circle2-path"><circle class="cls-1" cx="146.13" cy="86.11" r="36.12"/><circle class="cls-2" cx="146.13" cy="86.11" r="25.41"/><circle class="cls-1" cx="146.13" cy="86.11" r="15.05"/><path class="cls-1" d="M136.1,83.44H120.72v5.35H136.1Z"/><path class="cls-1" d="M138.78,78.76,125.4,71.06l-2.68,4.68,13.38,7.69Z"/><path class="cls-1" d="M143.46,76.08,135.77,62.7l-4.68,2.68,7.69,13.38Z"/><path class="cls-1" d="M148.81,76.08V60.7h-5.35V76.08Z"/><path class="cls-1" d="M143.46,96.14v15.38h5.35V96.14Z"/><path class="cls-1" d="M138.78,93.47l-7.69,13.38,4.68,2.68,7.69-13.38Z"/><path class="cls-1" d="M136.1,88.79l-13.38,7.69,2.68,4.68,13.38-7.69Z"/><circle class="cls-2" cx="146.13" cy="86.11" r="10.7"/></g></mask><clipPath id="clip-path-118"><rect class="cls-3" x="238.02" y="203.71" width="49.47" height="49.47"/></clipPath><clipPath id="clip-path-122"><rect class="cls-3" x="238.02" y="203.71" width="49.47" height="49.47" transform="translate(-84.58 252.71) rotate(-45)"/></clipPath><mask id="mask-7" x="244.21" y="244.88" width="37.11" height="37.11" maskUnits="userSpaceOnUse"><g id="circle-path-4" data-name="circle-path"><circle class="cls-1" cx="262.76" cy="263.43" r="18.55"/><circle class="cls-2" cx="262.76" cy="263.43" r="12.37"/><circle class="cls-1" cx="262.76" cy="263.43" r="6.18"/><circle class="cls-2" cx="262.76" cy="263.43" r="3.09"/></g></mask><mask id="mask-8" x="276.87" y="207.58" width="41.74" height="41.74" maskUnits="userSpaceOnUse"><g id="circle2-path-4" data-name="circle2-path"><circle class="cls-1" cx="297.74" cy="228.45" r="20.87"/><circle class="cls-2" cx="297.74" cy="228.45" r="14.69"/><circle class="cls-1" cx="297.74" cy="228.45" r="8.7"/><path class="cls-1" d="M291.94,226.91h-8.89V230h8.89Z"/><path class="cls-1" d="M293.49,224.2l-7.73-4.45-1.55,2.71,7.73,4.45Z"/><path class="cls-1" d="M296.19,222.65l-4.45-7.73L289,216.47l4.45,7.73Z"/><path class="cls-1" d="M299.28,222.65v-8.89h-3.09v8.89Z"/><path class="cls-1" d="M296.19,234.25v8.89h3.09v-8.89Z"/><path class="cls-1" d="M293.49,232.7,289,240.43l2.71,1.55,4.45-7.73Z"/><path class="cls-1" d="M291.94,230l-7.73,4.45,1.55,2.71,7.73-4.45Z"/><circle class="cls-2" cx="297.74" cy="228.45" r="6.18"/></g></mask></defs><title>if-svg_1</title><g id="레이어_2" data-name="레이어 2"><g id="레이어_1-2" data-name="레이어 1"><rect class="cls-4" x="269.09" width="81.78" height="81.78"/><rect class="cls-5" x="289.53" y="20.44" width="40.89" height="40.89" transform="translate(61.88 231.16) rotate(-45)"/><g class="cls-6"><rect class="cls-4" x="269.09" y="34.02" width="81.78" height="1.6"/></g><g class="cls-6"><rect class="cls-4" x="269.09" y="47.76" width="81.78" height="1.6"/></g><g class="cls-6"><rect class="cls-4" x="303.11" width="1.6" height="81.78"/></g><g class="cls-6"><rect class="cls-4" x="316.85" width="1.6" height="81.78"/></g><g class="cls-7"><g class="cls-8"><circle class="cls-1" cx="309.98" cy="69.8" r="15.33"/></g></g><g class="cls-7"><path class="cls-1" d="M295,68.52h-3.83v2.56H295Z"/></g><g class="cls-7"><path class="cls-1" d="M296.4,63.41l-3.67-1.28-1,2.56L295.44,66Z"/></g><g class="cls-7"><path class="cls-1" d="M299.28,59.26,296.4,56.7l-1.6,1.92,2.87,2.56Z"/></g><g class="cls-7"><path class="cls-1" d="M303.59,56.22l-1.92-3.35-2.24,1.28,1.92,3.35Z"/></g><g class="cls-7"><path class="cls-1" d="M308.7,54.78l-.64-3.67-2.56.32.64,3.67Z"/></g><g class="cls-7"><path class="cls-1" d="M313.81,55.1l.64-3.67-2.56-.32-.64,3.67Z"/></g><g class="cls-7"><path class="cls-1" d="M318.6,57.5l1.92-3.35-2.24-1.28-1.92,3.35Z"/></g><g class="cls-7"><path class="cls-1" d="M322.28,61.17l2.87-2.56-1.6-1.92-2.87,2.56Z"/></g><g class="cls-7"><path class="cls-1" d="M324.51,66l3.67-1.28-1-2.56-3.67,1.28Z"/></g><g class="cls-7"><path class="cls-1" d="M325,71.08h3.83V68.52H325Z"/></g><g class="cls-7"><g class="cls-9"><circle class="cls-1" cx="338.89" cy="40.89" r="17.25"/></g></g><g class="cls-7"><path class="cls-1" d="M322.12,38.81l-3.83-.48V39l3.83.48Z"/></g><g class="cls-7"><path class="cls-1" d="M322.44,36.42l-3.67-.8v.64l3.67.8Z"/></g><g class="cls-7"><path class="cls-1" d="M323.39,34.18l-3.67-1.44-.32.64,3.67,1.44Z"/></g><g class="cls-7"><path class="cls-1" d="M324.35,32.1,321,30.19l-.32.64L324,32.74Z"/></g><g class="cls-7"><path class="cls-1" d="M325.63,30.19l-2.87-2.4-.32.64,2.87,2.4Z"/></g><g class="cls-7"><path class="cls-1" d="M327.23,28.59l-2.56-2.87-.32.32,2.56,2.87Z"/></g><g class="cls-7"><path class="cls-1" d="M329.3,27l-2.24-3-.64.32,2.24,3Z"/></g><g class="cls-7"><path class="cls-1" d="M331.22,25.71l-1.76-3.35-.64.32L330.58,26Z"/></g><g class="cls-7"><path class="cls-1" d="M333.46,24.76l-1.28-3.51-.64.32,1.28,3.51Z"/></g><g class="cls-7"><path class="cls-1" d="M335.69,24.28l-.8-3.67h-.64l.8,3.67Z"/></g><g class="cls-7"><path class="cls-1" d="M338.09,24l-.32-3.83h-.64l.32,3.83Z"/></g><g class="cls-7"><path class="cls-1" d="M338.57,57.82v3.83h.64V57.82Z"/></g><g class="cls-7"><path class="cls-1" d="M336.17,57.66l-.48,3.83h.64l.48-3.83Z"/></g><g class="cls-7"><path class="cls-1" d="M333.94,57l-1.12,3.67.64.32,1.12-3.67Z"/></g><g class="cls-7"><path class="cls-1" d="M331.7,56.22l-1.6,3.51.64.32,1.6-3.51Z"/></g><g class="cls-7"><path class="cls-1" d="M329.62,55.1l-2.08,3.19.64.32,2.08-3.19Z"/></g><g class="cls-7"><path class="cls-1" d="M327.71,53.67l-2.56,3,.64.32,2.56-3Z"/></g><g class="cls-7"><path class="cls-1" d="M326.11,52.07l-2.87,2.56.32.32,2.87-2.56Z"/></g><g class="cls-7"><path class="cls-1" d="M324.67,50l-3.19,2.24.32.64L325,50.63Z"/></g><g class="cls-7"><path class="cls-1" d="M323.55,47.92,320,49.67l.32.64,3.51-1.76Z"/></g><g class="cls-7"><path class="cls-1" d="M322.6,45.84,318.92,47l.32.64,3.67-1.12Z"/></g><g class="cls-7"><path class="cls-1" d="M322.28,43.44l-3.83.8v.64l3.83-.8Z"/></g><g class="cls-7"><path class="cls-1" d="M322,41.21l-3.83.16V42l3.83-.16Z"/></g><image width="1280" height="1280" transform="translate(179.72 90.28) scale(0.06)" xlink:href="../Downloads/Telegram Desktop/photo_2016-07-20_20-48-43.jpg"/><image width="1280" height="1280" transform="translate(269.09 90.28) scale(0.06)" xlink:href="../Downloads/Telegram Desktop/photo_2016-07-20_20-48-46.jpg"/><rect class="cls-5" x="199.88" y="20.73" width="40.31" height="40.31" transform="translate(35.54 167.57) rotate(-45)"/><g class="cls-10"><rect class="cls-4" x="179.73" y="34.12" width="80.62" height="1.57"/></g><g class="cls-10"><rect class="cls-4" x="179.73" y="47.66" width="80.62" height="1.57"/></g><g class="cls-10"><rect class="cls-4" x="213.27" y="0.58" width="1.57" height="80.62"/></g><g class="cls-10"><rect class="cls-4" x="226.81" y="0.58" width="1.57" height="80.62"/></g><g class="cls-11"><g class="cls-12"><circle class="cls-1" cx="220.04" cy="69.39" r="15.12"/></g></g><g class="cls-11"><path class="cls-1" d="M205.24,68.13h-3.78v2.52h3.78Z"/></g><g class="cls-11"><path class="cls-1" d="M206.65,63.09,203,61.83l-.94,2.52,3.62,1.26Z"/></g><g class="cls-11"><path class="cls-1" d="M209.49,59l-2.83-2.52-1.57,1.89,2.83,2.52Z"/></g><g class="cls-11"><path class="cls-1" d="M213.74,56l-1.89-3.31L209.64,54l1.89,3.31Z"/></g><g class="cls-11"><path class="cls-1" d="M218.78,54.59,218.15,51l-2.52.31.63,3.62Z"/></g><g class="cls-11"><path class="cls-1" d="M223.82,54.9l.63-3.62L221.93,51l-.63,3.62Z"/></g><g class="cls-11"><path class="cls-1" d="M228.54,57.26,230.43,54l-2.2-1.26L226.34,56Z"/></g><g class="cls-11"><path class="cls-1" d="M232.16,60.89,235,58.37l-1.57-1.89L230.59,59Z"/></g><g class="cls-11"><path class="cls-1" d="M234.37,65.61,238,64.35,237,61.83l-3.62,1.26Z"/></g><g class="cls-11"><path class="cls-1" d="M234.84,70.65h3.78V68.13h-3.78Z"/></g><g class="cls-11"><g class="cls-13"><circle class="cls-1" cx="248.54" cy="40.89" r="17.01"/></g></g><g class="cls-11"><path class="cls-1" d="M232,38.84l-3.78-.47V39l3.78.47Z"/></g><g class="cls-11"><path class="cls-1" d="M232.32,36.48l-3.62-.79v.63l3.62.79Z"/></g><g class="cls-11"><path class="cls-1" d="M233.26,34.27l-3.62-1.42-.31.63,3.62,1.42Z"/></g><g class="cls-11"><path class="cls-1" d="M234.21,32.23l-3.31-1.89-.31.63,3.31,1.89Z"/></g><g class="cls-11"><path class="cls-1" d="M235.47,30.34,232.63,28l-.31.63L235.15,31Z"/></g><g class="cls-11"><path class="cls-1" d="M237,28.76l-2.52-2.83-.31.31,2.52,2.83Z"/></g><g class="cls-11"><path class="cls-1" d="M239.09,27.19l-2.2-3-.63.31,2.2,3Z"/></g><g class="cls-11"><path class="cls-1" d="M241,25.93l-1.73-3.31-.63.31,1.73,3.31Z"/></g><g class="cls-11"><path class="cls-1" d="M243.18,25l-1.26-3.46-.63.31,1.26,3.46Z"/></g><g class="cls-11"><path class="cls-1" d="M245.39,24.51l-.79-3.62H244l.79,3.62Z"/></g><g class="cls-11"><path class="cls-1" d="M247.75,24.2l-.31-3.78h-.63l.31,3.78Z"/></g><g class="cls-11"><path class="cls-1" d="M248.22,57.58v3.78h.63V57.58Z"/></g><g class="cls-11"><path class="cls-1" d="M245.86,57.42l-.47,3.78H246l.47-3.78Z"/></g><g class="cls-11"><path class="cls-1" d="M243.66,56.79l-1.1,3.62.63.31,1.1-3.62Z"/></g><g class="cls-11"><path class="cls-1" d="M241.45,56l-1.57,3.46.63.31,1.57-3.46Z"/></g><g class="cls-11"><path class="cls-1" d="M239.41,54.9l-2,3.15.63.31,2-3.15Z"/></g><g class="cls-11"><path class="cls-1" d="M237.52,53.49l-2.52,3,.63.31,2.52-3Z"/></g><g class="cls-11"><path class="cls-1" d="M235.94,51.91l-2.83,2.52.31.31,2.83-2.52Z"/></g><g class="cls-11"><path class="cls-1" d="M234.52,49.86l-3.15,2.2.31.63,3.15-2.2Z"/></g><g class="cls-11"><path class="cls-1" d="M233.42,47.82,230,49.55l.31.63,3.46-1.73Z"/></g><g class="cls-11"><path class="cls-1" d="M232.48,45.77l-3.62,1.1.31.63,3.62-1.1Z"/></g><g class="cls-11"><path class="cls-1" d="M232.16,43.41l-3.78.79v.63l3.78-.79Z"/></g><g class="cls-11"><path class="cls-1" d="M231.85,41.2l-3.78.16V42l3.78-.16Z"/></g><rect class="cls-4" y="0.51" width="171.21" height="171.21"/><rect class="cls-5" x="42.8" y="43.31" width="85.61" height="85.61" transform="translate(-35.82 85.75) rotate(-45)"/><g class="cls-14"><rect class="cls-4" y="71.73" width="171.21" height="3.34"/></g><g class="cls-14"><rect class="cls-4" y="100.49" width="171.21" height="3.34"/></g><g class="cls-14"><rect class="cls-4" x="71.23" y="0.51" width="3.34" height="171.21"/></g><g class="cls-14"><rect class="cls-4" x="99.99" y="0.51" width="3.34" height="171.21"/></g><g class="cls-15"><g class="cls-16"><circle class="cls-1" cx="85.61" cy="146.64" r="32.1"/></g></g><g class="cls-15"><path class="cls-1" d="M54.17,144h-8v5.35h8Z"/></g><g class="cls-15"><path class="cls-1" d="M57.18,133.26l-7.69-2.68-2,5.35,7.69,2.68Z"/></g><g class="cls-15"><path class="cls-1" d="M63.2,124.57l-6-5.35-3.34,4,6,5.35Z"/></g><g class="cls-15"><path class="cls-1" d="M72.23,118.21l-4-7-4.68,2.68,4,7Z"/></g><g class="cls-15"><path class="cls-1" d="M82.93,115.2l-1.34-7.69-5.35.67,1.34,7.69Z"/></g><g class="cls-15"><path class="cls-1" d="M93.63,115.87,95,108.18l-5.35-.67-1.34,7.69Z"/></g><g class="cls-15"><path class="cls-1" d="M103.66,120.89l4-7L103,111.19l-4,7Z"/></g><g class="cls-15"><path class="cls-1" d="M111.36,128.58l6-5.35-3.34-4-6,5.35Z"/></g><g class="cls-15"><path class="cls-1" d="M116,138.61l7.69-2.68-2-5.35L114,133.26Z"/></g><g class="cls-15"><path class="cls-1" d="M117,149.31h8V144h-8Z"/></g><g class="cls-15"><g class="cls-17"><circle class="cls-1" cx="146.13" cy="86.11" r="36.12"/></g></g><g class="cls-15"><path class="cls-1" d="M111,81.76l-8-1V82.1l8,1Z"/></g><g class="cls-15"><path class="cls-1" d="M111.69,76.75,104,75.08v1.34l7.69,1.67Z"/></g><g class="cls-15"><path class="cls-1" d="M113.7,72.07l-7.69-3-.67,1.34,7.69,3Z"/></g><g class="cls-15"><path class="cls-1" d="M115.7,67.72l-7-4L108,65l7,4Z"/></g><g class="cls-15"><path class="cls-1" d="M118.38,63.71l-6-5L111.69,60l6,5Z"/></g><g class="cls-15"><path class="cls-1" d="M121.72,60.36l-5.35-6-.67.67,5.35,6Z"/></g><g class="cls-15"><path class="cls-1" d="M126.07,57l-4.68-6.35-1.34.67,4.68,6.35Z"/></g><g class="cls-15"><path class="cls-1" d="M130.08,54.34l-3.68-7-1.34.67,3.68,7Z"/></g><g class="cls-15"><path class="cls-1" d="M134.76,52.34,132.09,45l-1.34.67L133.43,53Z"/></g><g class="cls-15"><path class="cls-1" d="M139.44,51.33l-1.67-7.69h-1.34l1.67,7.69Z"/></g><g class="cls-15"><path class="cls-1" d="M144.46,50.67l-.67-8h-1.34l.67,8Z"/></g><g class="cls-15"><path class="cls-1" d="M145.46,121.56v8h1.34v-8Z"/></g><g class="cls-15"><path class="cls-1" d="M140.45,121.22l-1,8h1.34l1-8Z"/></g><g class="cls-15"><path class="cls-1" d="M135.77,119.89l-2.34,7.69,1.34.67,2.34-7.69Z"/></g><g class="cls-15"><path class="cls-1" d="M131.08,118.21l-3.34,7.36,1.34.67,3.34-7.36Z"/></g><g class="cls-15"><path class="cls-1" d="M126.74,115.87l-4.35,6.69,1.34.67,4.35-6.69Z"/></g><g class="cls-15"><path class="cls-1" d="M122.72,112.86l-5.35,6.35,1.34.67,5.35-6.35Z"/></g><g class="cls-15"><path class="cls-1" d="M119.38,109.52l-6,5.35.67.67,6-5.35Z"/></g><g class="cls-15"><path class="cls-1" d="M116.37,105.17l-6.69,4.68.67,1.34,6.69-4.68Z"/></g><g class="cls-15"><path class="cls-1" d="M114,100.83l-7.36,3.68.67,1.34,7.36-3.68Z"/></g><g class="cls-15"><path class="cls-1" d="M112,96.48l-7.69,2.34.67,1.34,7.69-2.34Z"/></g><g class="cls-15"><path class="cls-1" d="M111.36,91.46l-8,1.67v1.34l8-1.67Z"/></g><g class="cls-15"><path class="cls-1" d="M110.69,86.78l-8,.33v1.34l8-.33Z"/></g><text class="cls-18" transform="translate(26.14 117.44) rotate(45)">i<tspan class="cls-19" x="3.05" y="0">f</tspan><tspan class="cls-20" x="7.27" y="0">-</tspan><tspan class="cls-21" x="10.27" y="0">T</tspan><tspan x="16.41" y="0">eam</tspan></text><line class="cls-4" x1="92.22" y1="284.65" x2="92.22" y2="276.14"/><rect class="cls-4" y="180.76" width="349.74" height="95.38" rx="47.69" ry="47.69"/><text class="cls-22" transform="translate(51.89 243.56)">if - <tspan class="cls-23" x="56" y="0">T</tspan><tspan x="76.4" y="0">eam</tspan></text><line class="cls-4" x1="43.23" y1="284.65" x2="43.23" y2="276.14"/><rect class="cls-5" x="238.02" y="203.71" width="49.47" height="49.47" transform="translate(-84.58 252.71) rotate(-45)"/><g class="cls-24"><rect class="cls-4" x="213.28" y="220.14" width="98.95" height="1.93"/></g><g class="cls-24"><rect class="cls-4" x="213.28" y="236.76" width="98.95" height="1.93"/></g><g class="cls-24"><rect class="cls-4" x="254.45" y="178.98" width="1.93" height="98.95"/></g><g class="cls-24"><rect class="cls-4" x="271.07" y="178.98" width="1.93" height="98.95"/></g><g class="cls-25"><g class="cls-26"><circle class="cls-1" cx="262.76" cy="263.43" r="18.55"/></g></g><g class="cls-25"><path class="cls-1" d="M244.59,261.89H240V265h4.64Z"/></g><g class="cls-25"><path class="cls-1" d="M246.33,255.7l-4.45-1.55-1.16,3.09,4.45,1.55Z"/></g><g class="cls-25"><path class="cls-1" d="M249.81,250.68l-3.48-3.09-1.93,2.32,3.48,3.09Z"/></g><g class="cls-25"><path class="cls-1" d="M255,247l-2.32-4.06L250,244.49l2.32,4.06Z"/></g><g class="cls-25"><path class="cls-1" d="M261.21,245.26l-.77-4.45-3.09.39.77,4.45Z"/></g><g class="cls-25"><path class="cls-1" d="M267.4,245.65l.77-4.45-3.09-.39-.77,4.45Z"/></g><g class="cls-25"><path class="cls-1" d="M273.19,248.55l2.32-4.06-2.71-1.55L270.49,247Z"/></g><g class="cls-25"><path class="cls-1" d="M277.64,253l3.48-3.09-1.93-2.32-3.48,3.09Z"/></g><g class="cls-25"><path class="cls-1" d="M280.35,258.79l4.45-1.55-1.16-3.09-4.45,1.55Z"/></g><g class="cls-25"><path class="cls-1" d="M280.93,265h4.64v-3.09h-4.64Z"/></g><g class="cls-25"><g class="cls-27"><circle class="cls-1" cx="297.74" cy="228.45" r="20.87"/></g></g><g class="cls-25"><path class="cls-1" d="M277.45,225.94l-4.64-.58v.77l4.64.58Z"/></g><g class="cls-25"><path class="cls-1" d="M277.83,223l-4.45-1v.77l4.45,1Z"/></g><g class="cls-25"><path class="cls-1" d="M279,220.33l-4.45-1.74-.39.77,4.45,1.74Z"/></g><g class="cls-25"><path class="cls-1" d="M280.15,217.82l-4.06-2.32-.39.77,4.06,2.32Z"/></g><g class="cls-25"><path class="cls-1" d="M281.7,215.5l-3.48-2.9-.39.77,3.48,2.9Z"/></g><g class="cls-25"><path class="cls-1" d="M283.63,213.57l-3.09-3.48-.39.39,3.09,3.48Z"/></g><g class="cls-25"><path class="cls-1" d="M286.14,211.64,283.44,208l-.77.39,2.71,3.67Z"/></g><g class="cls-25"><path class="cls-1" d="M288.46,210.09,286.34,206l-.77.39,2.13,4.06Z"/></g><g class="cls-25"><path class="cls-1" d="M291.17,208.93l-1.55-4.25-.77.39,1.55,4.25Z"/></g><g class="cls-25"><path class="cls-1" d="M293.87,208.35l-1-4.45h-.77l1,4.45Z"/></g><g class="cls-25"><path class="cls-1" d="M296.77,208l-.39-4.64h-.77L296,208Z"/></g><g class="cls-25"><path class="cls-1" d="M297.35,248.94v4.64h.77v-4.64Z"/></g><g class="cls-25"><path class="cls-1" d="M294.45,248.74l-.58,4.64h.77l.58-4.64Z"/></g><g class="cls-25"><path class="cls-1" d="M291.75,248l-1.35,4.45.77.39,1.35-4.45Z"/></g><g class="cls-25"><path class="cls-1" d="M289,247l-1.93,4.25.77.39,1.93-4.25Z"/></g><g class="cls-25"><path class="cls-1" d="M286.53,245.65,284,249.52l.77.39L287.3,246Z"/></g><g class="cls-25"><path class="cls-1" d="M284.21,243.91l-3.09,3.67.77.39L285,244.3Z"/></g><g class="cls-25"><path class="cls-1" d="M282.28,242l-3.48,3.09.39.39,3.48-3.09Z"/></g><g class="cls-25"><path class="cls-1" d="M280.54,239.47l-3.87,2.71.39.77,3.87-2.71Z"/></g><g class="cls-25"><path class="cls-1" d="M279.19,237l-4.25,2.13.39.77,4.25-2.13Z"/></g><g class="cls-25"><path class="cls-1" d="M278,234.44l-4.45,1.35.39.77,4.45-1.35Z"/></g><g class="cls-25"><path class="cls-1" d="M277.64,231.54l-4.64,1v.77l4.64-1Z"/></g><g class="cls-25"><path class="cls-1" d="M277.25,228.84l-4.64.19v.77l4.64-.19Z"/></g></g></g></svg>